<svg xmlns="http://www.w3.org/2000/svg" width="1920" height="500"><path d="M931,280L1037,128L862,167Z" fill="#72537a" stroke="#72537a" stroke-width="1.51"/><path d="M931,280L1118,305L1037,128Z" fill="#6a4c73" stroke="#6a4c73" stroke-width="1.51"/><path d="M862,167L715,291L931,280Z" fill="#71527a" stroke="#71527a" stroke-width="1.51"/><path d="M931,280L1176,537L1118,305Z" fill="#5f4167" stroke="#5f4167" stroke-width="1.51"/><path d="M1037,128L925,-88L862,167Z" fill="#6b4d76" stroke="#6b4d76" stroke-width="1.51"/><path d="M862,167L530,54L715,291Z" fill="#775881" stroke="#775881" stroke-width="1.51"/><path d="M1037,128L1006,-178L925,-88Z" fill="#5c4068" stroke="#5c4068" stroke-width="1.51"/><path d="M1118,305L1261,21L1037,128Z" fill="#6d4e76" stroke="#6d4e76" stroke-width="1.51"/><path d="M1118,305L1277,338L1261,21Z" fill="#66476e" stroke="#66476e" stroke-width="1.51"/><path d="M1176,537L1277,338L1118,305Z" fill="#5b3d64" stroke="#5b3d64" stroke-width="1.51"/><path d="M1261,21L1006,-178L1037,128Z" fill="#5c3f67" stroke="#5c3f67" stroke-width="1.51"/><path d="M1006,-178L893,-215L925,-88Z" fill="#553d61" stroke="#553d61" stroke-width="1.51"/><path d="M587,-89L530,54L862,167Z" fill="#694c75" stroke="#694c75" stroke-width="1.51"/><path d="M945,693L1176,537L931,280Z" fill="#5c3f67" stroke="#5c3f67" stroke-width="1.51"/><path d="M1006,-178L996,-239L893,-215Z" fill="#4f395d" stroke="#4f395d" stroke-width="1.51"/><path d="M1231,-372L996,-239L1006,-178Z" fill="#4a3556" stroke="#4a3556" stroke-width="1.51"/><path d="M1261,21L1231,-372L1006,-178Z" fill="#4b3457" stroke="#4b3457" stroke-width="1.51"/><path d="M1434,82L1352,-20L1261,21Z" fill="#5a3e67" stroke="#5a3e67" stroke-width="1.51"/><path d="M587,-89L862,167L925,-88Z" fill="#694c74" stroke="#694c74" stroke-width="1.51"/><path d="M893,-215L587,-89L925,-88Z" fill="#5c4369" stroke="#5c4369" stroke-width="1.51"/><path d="M715,291L682,581L931,280Z" fill="#6a4c74" stroke="#6a4c74" stroke-width="1.51"/><path d="M491,458L682,581L715,291Z" fill="#61446c" stroke="#61446c" stroke-width="1.51"/><path d="M1277,338L1434,82L1261,21Z" fill="#694b73" stroke="#694b73" stroke-width="1.51"/><path d="M1664,63L1434,82L1643,399Z" fill="#61456e" stroke="#61456e" stroke-width="1.51"/><path d="M1176,537L1232,603L1277,338Z" fill="#563a62" stroke="#563a62" stroke-width="1.51"/><path d="M945,693L1232,603L1176,537Z" fill="#52385d" stroke="#52385d" stroke-width="1.51"/><path d="M682,581L945,693L931,280Z" fill="#62466e" stroke="#62466e" stroke-width="1.51"/><path d="M893,-215L690,-271L587,-89Z" fill="#564064" stroke="#564064" stroke-width="1.51"/><path d="M996,-239L690,-271L893,-215Z" fill="#503c5e" stroke="#503c5e" stroke-width="1.51"/><path d="M530,54L491,458L715,291Z" fill="#684a73" stroke="#684a73" stroke-width="1.51"/><path d="M1352,-20L1231,-372L1261,21Z" fill="#4d355a" stroke="#4d355a" stroke-width="1.51"/><path d="M1434,82L1501,-11L1352,-20Z" fill="#573c65" stroke="#573c65" stroke-width="1.51"/><path d="M1664,63L1501,-11L1434,82Z" fill="#593d67" stroke="#593d67" stroke-width="1.51"/><path d="M996,-239L1231,-372L690,-271Z" fill="#513b5c" stroke="#513b5c" stroke-width="1.51"/><path d="M1492,-411L1231,-372L1352,-20Z" fill="#443052" stroke="#443052" stroke-width="1.51"/><path d="M353,-90L530,54L587,-89Z" fill="#553a64" stroke="#553a64" stroke-width="1.51"/><path d="M353,-90L317,191L530,54Z" fill="#5b3f69" stroke="#5b3f69" stroke-width="1.51"/><path d="M530,54L317,191L491,458Z" fill="#63466e" stroke="#63466e" stroke-width="1.51"/><path d="M383,-390L353,-90L587,-89Z" fill="#463157" stroke="#463157" stroke-width="1.51"/><path d="M682,581L571,816L945,693Z" fill="#564065" stroke="#564065" stroke-width="1.51"/><path d="M491,458L449,633L682,581Z" fill="#573c65" stroke="#573c65" stroke-width="1.51"/><path d="M259,345L449,633L491,458Z" fill="#533761" stroke="#533761" stroke-width="1.51"/><path d="M1643,399L1434,82L1277,338Z" fill="#5d4068" stroke="#5d4068" stroke-width="1.51"/><path d="M1501,-11L1492,-411L1352,-20Z" fill="#483157" stroke="#483157" stroke-width="1.51"/><path d="M317,191L259,345L491,458Z" fill="#563b62" stroke="#563b62" stroke-width="1.51"/><path d="M54,241L259,345L317,191Z" fill="#563d62" stroke="#563d62" stroke-width="1.51"/><path d="M1576,612L1643,399L1277,338Z" fill="#533760" stroke="#533760" stroke-width="1.51"/><path d="M449,633L571,816L682,581Z" fill="#4f385e" stroke="#4f385e" stroke-width="1.51"/><path d="M1404,857L1442,758L1232,603Z" fill="#422e51" stroke="#422e51" stroke-width="1.51"/><path d="M1232,603L1576,612L1277,338Z" fill="#533760" stroke="#533760" stroke-width="1.51"/><path d="M1040,932L1232,603L945,693Z" fill="#493456" stroke="#493456" stroke-width="1.51"/><path d="M875,937L1040,932L945,693Z" fill="#493758" stroke="#493758" stroke-width="1.51"/><path d="M1442,758L1576,612L1232,603Z" fill="#473156" stroke="#473156" stroke-width="1.51"/><path d="M571,816L875,937L945,693Z" fill="#503d5f" stroke="#503d5f" stroke-width="1.51"/><path d="M1576,612L1670,506L1643,399Z" fill="#4c335b" stroke="#4c335b" stroke-width="1.51"/><path d="M1643,399L1771,345L1664,63Z" fill="#563c62" stroke="#563c62" stroke-width="1.51"/><path d="M1781,-173L1492,-411L1501,-11Z" fill="#402d51" stroke="#402d51" stroke-width="1.51"/><path d="M1576,612L1702,833L1670,506Z" fill="#412d52" stroke="#412d52" stroke-width="1.51"/><path d="M1442,758L1702,833L1576,612Z" fill="#3e2c4f" stroke="#3e2c4f" stroke-width="1.51"/><path d="M1040,932L1404,857L1232,603Z" fill="#423051" stroke="#423051" stroke-width="1.51"/><path d="M690,-271L383,-390L587,-89Z" fill="#493658" stroke="#493658" stroke-width="1.51"/><path d="M353,-90L155,-17L317,191Z" fill="#533962" stroke="#533962" stroke-width="1.51"/><path d="M1231,-372L383,-390L690,-271Z" fill="#5e4666" stroke="#5e4666" stroke-width="1.51"/><path d="M1492,-411L383,-390L1231,-372Z" fill="#583f5c" stroke="#583f5c" stroke-width="1.51"/><path d="M105,-324L155,-17L353,-90Z" fill="#3f2d50" stroke="#3f2d50" stroke-width="1.51"/><path d="M1664,63L1781,-173L1501,-11Z" fill="#4a325b" stroke="#4a325b" stroke-width="1.51"/><path d="M1670,506L1771,345L1643,399Z" fill="#4d345a" stroke="#4d345a" stroke-width="1.51"/><path d="M571,816L380,857L875,937Z" fill="#473658" stroke="#473658" stroke-width="1.51"/><path d="M449,633L380,857L571,816Z" fill="#433054" stroke="#433054" stroke-width="1.51"/><path d="M123,750L380,857L449,633Z" fill="#3c2b4d" stroke="#3c2b4d" stroke-width="1.51"/><path d="M50,513L449,633L259,345Z" fill="#4b335a" stroke="#4b335a" stroke-width="1.51"/><path d="M2009,1L1781,-173L1664,63Z" fill="#442f55" stroke="#442f55" stroke-width="1.51"/><path d="M155,-17L54,241L317,191Z" fill="#5b4269" stroke="#5b4269" stroke-width="1.51"/><path d="M1771,345L1893,181L1664,63Z" fill="#584065" stroke="#584065" stroke-width="1.51"/><path d="M1896,261L1893,181L1771,345Z" fill="#4f3a5d" stroke="#4f3a5d" stroke-width="1.51"/><path d="M1981,541L1771,345L1670,506Z" fill="#473156" stroke="#473156" stroke-width="1.51"/><path d="M1981,541L1896,261L1771,345Z" fill="#473254" stroke="#473254" stroke-width="1.51"/><path d="M1781,-173L1810,-240L1492,-411Z" fill="#3c2b4b" stroke="#3c2b4b" stroke-width="1.51"/><path d="M2009,1L1810,-240L1781,-173Z" fill="#3a2a4b" stroke="#3a2a4b" stroke-width="1.51"/><path d="M19,445L50,513L259,345Z" fill="#483156" stroke="#483156" stroke-width="1.51"/><path d="M54,241L19,445L259,345Z" fill="#4c3558" stroke="#4c3558" stroke-width="1.51"/><path d="M1404,857L1702,833L1442,758Z" fill="#3c2b4e" stroke="#3c2b4e" stroke-width="1.51"/><path d="M1040,932L1702,833L1404,857Z" fill="#3c2d4e" stroke="#3c2d4e" stroke-width="1.51"/><path d="M155,-17L-32,145L54,241Z" fill="#553e63" stroke="#553e63" stroke-width="1.51"/><path d="M54,241L-259,382L19,445Z" fill="#473253" stroke="#473253" stroke-width="1.51"/><path d="M-98,-67L-32,145L155,-17Z" fill="#473357" stroke="#473357" stroke-width="1.51"/><path d="M-259,382L22,513L19,445Z" fill="#443052" stroke="#443052" stroke-width="1.51"/><path d="M19,445L22,513L50,513Z" fill="#422e52" stroke="#422e52" stroke-width="1.51"/><path d="M50,513L123,750L449,633Z" fill="#412d51" stroke="#412d51" stroke-width="1.51"/><path d="M383,-390L105,-324L353,-90Z" fill="#3d2b4d" stroke="#3d2b4d" stroke-width="1.51"/><path d="M22,513L123,750L50,513Z" fill="#3e2c4f" stroke="#3e2c4f" stroke-width="1.51"/><path d="M105,-324L3,-252L155,-17Z" fill="#372848" stroke="#372848" stroke-width="1.51"/><path d="M1893,181L2009,1L1664,63Z" fill="#503a5f" stroke="#503a5f" stroke-width="1.51"/><path d="M2136,79L2009,1L1893,181Z" fill="#4c385c" stroke="#4c385c" stroke-width="1.51"/><path d="M2136,79L1893,181L1896,261Z" fill="#523e60" stroke="#523e60" stroke-width="1.51"/><path d="M1702,833L1981,541L1670,506Z" fill="#3e2c4f" stroke="#3e2c4f" stroke-width="1.51"/><path d="M3,-252L-98,-67L155,-17Z" fill="#3b2a4c" stroke="#3b2a4c" stroke-width="1.51"/><path d="M-32,145L-259,382L54,241Z" fill="#4f395b" stroke="#4f395b" stroke-width="1.51"/><path d="M2009,1L2109,-248L1810,-240Z" fill="#352746" stroke="#352746" stroke-width="1.51"/><path d="M2141,366L2136,79L1896,261Z" fill="#4c395a" stroke="#4c395a" stroke-width="1.51"/><path d="M1981,541L2141,366L1896,261Z" fill="#433051" stroke="#433051" stroke-width="1.51"/><path d="M1702,833L2023,716L1981,541Z" fill="#342746" stroke="#342746" stroke-width="1.51"/><path d="M2320,586L2141,366L1981,541Z" fill="#3c2c4e" stroke="#3c2c4e" stroke-width="1.51"/><path d="M1810,-240L2153,-385L1492,-411Z" fill="#3e2d49" stroke="#3e2d49" stroke-width="1.51"/><path d="M2136,79L2109,-248L2009,1Z" fill="#3b2a4d" stroke="#3b2a4d" stroke-width="1.51"/><path d="M22,513L-150,871L123,750Z" fill="#322644" stroke="#322644" stroke-width="1.51"/><path d="M-303,197L-259,382L-32,145Z" fill="#563f5e" stroke="#563f5e" stroke-width="1.51"/><path d="M-334,-24L-303,197L-98,-67Z" fill="#523b5b" stroke="#523b5b" stroke-width="1.51"/><path d="M-98,-67L-303,197L-32,145Z" fill="#533d5f" stroke="#533d5f" stroke-width="1.51"/><path d="M-316,557L22,513L-259,382Z" fill="#483353" stroke="#483353" stroke-width="1.51"/><path d="M-316,557L-150,871L22,513Z" fill="#3c2c4a" stroke="#3c2c4a" stroke-width="1.51"/><path d="M123,750L-150,871L380,857Z" fill="#312644" stroke="#312644" stroke-width="1.51"/><path d="M380,857L-150,871L875,937Z" fill="#392a4c" stroke="#392a4c" stroke-width="1.51"/><path d="M-399,-435L-334,-24L-98,-67Z" fill="#402e4b" stroke="#402e4b" stroke-width="1.51"/><path d="M-399,-435L-98,-67L3,-252Z" fill="#362844" stroke="#362844" stroke-width="1.51"/><path d="M2109,-248L2153,-385L1810,-240Z" fill="#322641" stroke="#322641" stroke-width="1.51"/><path d="M2322,-185L2153,-385L2109,-248Z" fill="#2e243f" stroke="#2e243f" stroke-width="1.51"/><path d="M2322,-185L2109,-248L2136,79Z" fill="#342747" stroke="#342747" stroke-width="1.51"/><path d="M-303,197L-316,557L-259,382Z" fill="#513956" stroke="#513956" stroke-width="1.51"/><path d="M-334,-24L-316,557L-303,197Z" fill="#5b4260" stroke="#5b4260" stroke-width="1.51"/><path d="M2320,586L2322,-185L2136,79Z" fill="#4e3d5e" stroke="#4e3d5e" stroke-width="1.51"/><path d="M2023,716L2320,586L1981,541Z" fill="#362849" stroke="#362849" stroke-width="1.51"/><path d="M2141,366L2320,586L2136,79Z" fill="#423050" stroke="#423050" stroke-width="1.51"/><path d="M-316,557L-330,802L-150,871Z" fill="#3a2b45" stroke="#3a2b45" stroke-width="1.51"/><path d="M-399,-435L-330,802L-316,557Z" fill="#583e5b" stroke="#583e5b" stroke-width="1.51"/><path d="M2023,716L2258,837L2320,586Z" fill="#2d2440" stroke="#2d2440" stroke-width="1.51"/><path d="M1702,833L2258,837L2023,716Z" fill="#2c233f" stroke="#2c233f" stroke-width="1.51"/><path d="M1040,932L2258,837L1702,833Z" fill="#352848" stroke="#352848" stroke-width="1.51"/><path d="M-334,-24L-399,-435L-316,557Z" fill="#573e5d" stroke="#573e5d" stroke-width="1.51"/><path d="M105,-324L-399,-435L3,-252Z" fill="#3c2c45" stroke="#3c2c45" stroke-width="1.51"/><path d="M383,-390L-399,-435L105,-324Z" fill="#3e2d48" stroke="#3e2d48" stroke-width="1.51"/><path d="M1492,-411L-399,-435L383,-390Z" fill="#563d5b" stroke="#563d5b" stroke-width="1.51"/></svg>