<svg xmlns="http://www.w3.org/2000/svg" width="1920" height="500"><path d="M931 280l106-152-175 39z" fill="#72537a" stroke="#72537a" stroke-width="1.51"/><path d="M931 280l187 25-81-177z" fill="#6a4c73" stroke="#6a4c73" stroke-width="1.51"/><path d="M862 167L715 291l216-11z" fill="#71527a" stroke="#71527a" stroke-width="1.51"/><path d="M931 280l245 257-58-232z" fill="#5f4167" stroke="#5f4167" stroke-width="1.51"/><path d="M1037 128L925-88l-63 255z" fill="#6b4d76" stroke="#6b4d76" stroke-width="1.51"/><path d="M862 167L530 54l185 237z" fill="#775881" stroke="#775881" stroke-width="1.51"/><path d="M1037 128l-31-306-81 90z" fill="#5c4068" stroke="#5c4068" stroke-width="1.51"/><path d="M1118 305l143-284-224 107z" fill="#6d4e76" stroke="#6d4e76" stroke-width="1.51"/><path d="M1118 305l159 33-16-317z" fill="#66476e" stroke="#66476e" stroke-width="1.51"/><path d="M1176 537l101-199-159-33z" fill="#5b3d64" stroke="#5b3d64" stroke-width="1.51"/><path d="M1261 21l-255-199 31 306z" fill="#5c3f67" stroke="#5c3f67" stroke-width="1.51"/><path d="M1006-178l-113-37 32 127z" fill="#553d61" stroke="#553d61" stroke-width="1.51"/><path d="M587-89L530 54l332 113z" fill="#694c75" stroke="#694c75" stroke-width="1.51"/><path d="M945 693l231-156-245-257z" fill="#5c3f67" stroke="#5c3f67" stroke-width="1.51"/><path d="M1006-178l-10-61-103 24z" fill="#4f395d" stroke="#4f395d" stroke-width="1.51"/><path d="M1231-372L996-239l10 61z" fill="#4a3556" stroke="#4a3556" stroke-width="1.51"/><path d="M1261 21l-30-393-225 194z" fill="#4b3457" stroke="#4b3457" stroke-width="1.51"/><path d="M1434 82l-82-102-91 41z" fill="#5a3e67" stroke="#5a3e67" stroke-width="1.51"/><path d="M587-89l275 256 63-255z" fill="#694c74" stroke="#694c74" stroke-width="1.51"/><path d="M893-215L587-89l338 1z" fill="#5c4369" stroke="#5c4369" stroke-width="1.51"/><path d="M715 291l-33 290 249-301z" fill="#6a4c74" stroke="#6a4c74" stroke-width="1.51"/><path d="M491 458l191 123 33-290z" fill="#61446c" stroke="#61446c" stroke-width="1.51"/><path d="M1277 338l157-256-173-61z" fill="#694b73" stroke="#694b73" stroke-width="1.51"/><path d="M1664 63l-230 19 209 317z" fill="#61456e" stroke="#61456e" stroke-width="1.51"/><path d="M1176 537l56 66 45-265z" fill="#563a62" stroke="#563a62" stroke-width="1.51"/><path d="M945 693l287-90-56-66z" fill="#52385d" stroke="#52385d" stroke-width="1.51"/><path d="M682 581l263 112-14-413z" fill="#62466e" stroke="#62466e" stroke-width="1.51"/><path d="M893-215l-203-56L587-89z" fill="#564064" stroke="#564064" stroke-width="1.51"/><path d="M996-239l-306-32 203 56z" fill="#503c5e" stroke="#503c5e" stroke-width="1.51"/><path d="M530 54l-39 404 224-167z" fill="#684a73" stroke="#684a73" stroke-width="1.51"/><path d="M1352-20l-121-352 30 393z" fill="#4d355a" stroke="#4d355a" stroke-width="1.51"/><path d="M1434 82l67-93-149-9z" fill="#573c65" stroke="#573c65" stroke-width="1.51"/><path d="M1664 63l-163-74-67 93z" fill="#593d67" stroke="#593d67" stroke-width="1.51"/><path d="M996-239l235-133-541 101z" fill="#513b5c" stroke="#513b5c" stroke-width="1.51"/><path d="M1492-411l-261 39 121 352z" fill="#443052" stroke="#443052" stroke-width="1.51"/><path d="M353-90L530 54l57-143z" fill="#553a64" stroke="#553a64" stroke-width="1.51"/><path d="M353-90l-36 281L530 54z" fill="#5b3f69" stroke="#5b3f69" stroke-width="1.51"/><path d="M530 54L317 191l174 267z" fill="#63466e" stroke="#63466e" stroke-width="1.51"/><path d="M383-390L353-90l234 1z" fill="#463157" stroke="#463157" stroke-width="1.51"/><path d="M682 581L571 816l374-123z" fill="#564065" stroke="#564065" stroke-width="1.51"/><path d="M491 458l-42 175 233-52z" fill="#573c65" stroke="#573c65" stroke-width="1.51"/><path d="M259 345l190 288 42-175z" fill="#533761" stroke="#533761" stroke-width="1.51"/><path d="M1643 399L1434 82l-157 256z" fill="#5d4068" stroke="#5d4068" stroke-width="1.51"/><path d="M1501-11l-9-400-140 391z" fill="#483157" stroke="#483157" stroke-width="1.51"/><path d="M317 191l-58 154 232 113z" fill="#563b62" stroke="#563b62" stroke-width="1.51"/><path d="M54 241l205 104 58-154z" fill="#563d62" stroke="#563d62" stroke-width="1.51"/><path d="M1576 612l67-213-366-61z" fill="#533760" stroke="#533760" stroke-width="1.51"/><path d="M449 633l122 183 111-235z" fill="#4f385e" stroke="#4f385e" stroke-width="1.51"/><path d="M1404 857l38-99-210-155z" fill="#422e51" stroke="#422e51" stroke-width="1.51"/><path d="M1232 603l344 9-299-274z" fill="#533760" stroke="#533760" stroke-width="1.51"/><path d="M1040 932l192-329-287 90z" fill="#493456" stroke="#493456" stroke-width="1.51"/><path d="M875 937l165-5-95-239z" fill="#493758" stroke="#493758" stroke-width="1.51"/><path d="M1442 758l134-146-344-9z" fill="#473156" stroke="#473156" stroke-width="1.51"/><path d="M571 816l304 121 70-244z" fill="#503d5f" stroke="#503d5f" stroke-width="1.51"/><path d="M1576 612l94-106-27-107z" fill="#4c335b" stroke="#4c335b" stroke-width="1.51"/><path d="M1643 399l128-54-107-282z" fill="#563c62" stroke="#563c62" stroke-width="1.51"/><path d="M1781-173l-289-238 9 400z" fill="#402d51" stroke="#402d51" stroke-width="1.51"/><path d="M1576 612l126 221-32-327z" fill="#412d52" stroke="#412d52" stroke-width="1.51"/><path d="M1442 758l260 75-126-221z" fill="#3e2c4f" stroke="#3e2c4f" stroke-width="1.51"/><path d="M1040 932l364-75-172-254z" fill="#423051" stroke="#423051" stroke-width="1.51"/><path d="M690-271L383-390 587-89z" fill="#493658" stroke="#493658" stroke-width="1.51"/><path d="M353-90L155-17l162 208z" fill="#533962" stroke="#533962" stroke-width="1.51"/><path d="M1231-372l-848-18 307 119z" fill="#5e4666" stroke="#5e4666" stroke-width="1.51"/><path d="M1492-411L383-390l848 18z" fill="#583f5c" stroke="#583f5c" stroke-width="1.51"/><path d="M105-324l50 307 198-73z" fill="#3f2d50" stroke="#3f2d50" stroke-width="1.51"/><path d="M1664 63l117-236-280 162z" fill="#4a325b" stroke="#4a325b" stroke-width="1.51"/><path d="M1670 506l101-161-128 54z" fill="#4d345a" stroke="#4d345a" stroke-width="1.51"/><path d="M571 816l-191 41 495 80z" fill="#473658" stroke="#473658" stroke-width="1.51"/><path d="M449 633l-69 224 191-41z" fill="#433054" stroke="#433054" stroke-width="1.51"/><path d="M123 750l257 107 69-224z" fill="#3c2b4d" stroke="#3c2b4d" stroke-width="1.51"/><path d="M50 513l399 120-190-288z" fill="#4b335a" stroke="#4b335a" stroke-width="1.51"/><path d="M2009 1l-228-174-117 236z" fill="#442f55" stroke="#442f55" stroke-width="1.51"/><path d="M155-17L54 241l263-50z" fill="#5b4269" stroke="#5b4269" stroke-width="1.51"/><path d="M1771 345l122-164-229-118z" fill="#584065" stroke="#584065" stroke-width="1.51"/><path d="M1896 261l-3-80-122 164z" fill="#4f3a5d" stroke="#4f3a5d" stroke-width="1.51"/><path d="M1981 541l-210-196-101 161z" fill="#473156" stroke="#473156" stroke-width="1.51"/><path d="M1981 541l-85-280-125 84z" fill="#473254" stroke="#473254" stroke-width="1.51"/><path d="M1781-173l29-67-318-171z" fill="#3c2b4b" stroke="#3c2b4b" stroke-width="1.51"/><path d="M2009 1l-199-241-29 67z" fill="#3a2a4b" stroke="#3a2a4b" stroke-width="1.51"/><path d="M19 445l31 68 209-168z" fill="#483156" stroke="#483156" stroke-width="1.51"/><path d="M54 241L19 445l240-100z" fill="#4c3558" stroke="#4c3558" stroke-width="1.51"/><path d="M1404 857l298-24-260-75z" fill="#3c2b4e" stroke="#3c2b4e" stroke-width="1.51"/><path d="M1040 932l662-99-298 24z" fill="#3c2d4e" stroke="#3c2d4e" stroke-width="1.51"/><path d="M155-17L-32 145l86 96z" fill="#553e63" stroke="#553e63" stroke-width="1.51"/><path d="M54 241l-313 141 278 63z" fill="#473253" stroke="#473253" stroke-width="1.51"/><path d="M-98-67l66 212L155-17z" fill="#473357" stroke="#473357" stroke-width="1.51"/><path d="M-259 382L22 513l-3-68z" fill="#443052" stroke="#443052" stroke-width="1.51"/><path d="M19 445l3 68h28z" fill="#422e52" stroke="#422e52" stroke-width="1.51"/><path d="M50 513l73 237 326-117z" fill="#412d51" stroke="#412d51" stroke-width="1.51"/><path d="M383-390l-278 66L353-90z" fill="#3d2b4d" stroke="#3d2b4d" stroke-width="1.51"/><path d="M22 513l101 237-73-237z" fill="#3e2c4f" stroke="#3e2c4f" stroke-width="1.51"/><path d="M105-324L3-252 155-17z" fill="#372848" stroke="#372848" stroke-width="1.51"/><path d="M1893 181L2009 1l-345 62z" fill="#503a5f" stroke="#503a5f" stroke-width="1.51"/><path d="M2136 79L2009 1l-116 180z" fill="#4c385c" stroke="#4c385c" stroke-width="1.51"/><path d="M2136 79l-243 102 3 80z" fill="#523e60" stroke="#523e60" stroke-width="1.51"/><path d="M1702 833l279-292-311-35z" fill="#3e2c4f" stroke="#3e2c4f" stroke-width="1.51"/><path d="M3-252L-98-67l253 50z" fill="#3b2a4c" stroke="#3b2a4c" stroke-width="1.51"/><path d="M-32 145l-227 237L54 241z" fill="#4f395b" stroke="#4f395b" stroke-width="1.51"/><path d="M2009 1l100-249-299 8z" fill="#352746" stroke="#352746" stroke-width="1.51"/><path d="M2141 366l-5-287-240 182z" fill="#4c395a" stroke="#4c395a" stroke-width="1.51"/><path d="M1981 541l160-175-245-105z" fill="#433051" stroke="#433051" stroke-width="1.51"/><path d="M1702 833l321-117-42-175z" fill="#342746" stroke="#342746" stroke-width="1.51"/><path d="M2320 586l-179-220-160 175z" fill="#3c2c4e" stroke="#3c2c4e" stroke-width="1.51"/><path d="M1810-240l343-145-661-26z" fill="#3e2d49" stroke="#3e2d49" stroke-width="1.51"/><path d="M2136 79l-27-327L2009 1z" fill="#3b2a4d" stroke="#3b2a4d" stroke-width="1.51"/><path d="M22 513l-172 358 273-121z" fill="#322644" stroke="#322644" stroke-width="1.51"/><path d="M-303 197l44 185 227-237z" fill="#563f5e" stroke="#563f5e" stroke-width="1.51"/><path d="M-334-24l31 221L-98-67z" fill="#523b5b" stroke="#523b5b" stroke-width="1.51"/><path d="M-98-67l-205 264 271-52z" fill="#533d5f" stroke="#533d5f" stroke-width="1.51"/><path d="M-316 557l338-44-281-131z" fill="#483353" stroke="#483353" stroke-width="1.51"/><path d="M-316 557l166 314L22 513z" fill="#3c2c4a" stroke="#3c2c4a" stroke-width="1.51"/><path d="M123 750l-273 121 530-14z" fill="#312644" stroke="#312644" stroke-width="1.51"/><path d="M380 857l-530 14 1025 66z" fill="#392a4c" stroke="#392a4c" stroke-width="1.51"/><path d="M-399-435l65 411 236-43z" fill="#402e4b" stroke="#402e4b" stroke-width="1.51"/><path d="M-399-435L-98-67 3-252z" fill="#362844" stroke="#362844" stroke-width="1.51"/><path d="M2109-248l44-137-343 145z" fill="#322641" stroke="#322641" stroke-width="1.51"/><path d="M2322-185l-169-200-44 137z" fill="#2e243f" stroke="#2e243f" stroke-width="1.51"/><path d="M2322-185l-213-63 27 327z" fill="#342747" stroke="#342747" stroke-width="1.51"/><path d="M-303 197l-13 360 57-175z" fill="#513956" stroke="#513956" stroke-width="1.51"/><path d="M-334-24l18 581 13-360z" fill="#5b4260" stroke="#5b4260" stroke-width="1.51"/><path d="M2320 586l2-771-186 264z" fill="#4e3d5e" stroke="#4e3d5e" stroke-width="1.51"/><path d="M2023 716l297-130-339-45z" fill="#362849" stroke="#362849" stroke-width="1.51"/><path d="M2141 366l179 220-184-507z" fill="#423050" stroke="#423050" stroke-width="1.51"/><path d="M-316 557l-14 245 180 69z" fill="#3a2b45" stroke="#3a2b45" stroke-width="1.51"/><path d="M-399-435l69 1237 14-245z" fill="#583e5b" stroke="#583e5b" stroke-width="1.51"/><path d="M2023 716l235 121 62-251z" fill="#2d2440" stroke="#2d2440" stroke-width="1.51"/><path d="M1702 833l556 4-235-121z" fill="#2c233f" stroke="#2c233f" stroke-width="1.51"/><path d="M1040 932l1218-95-556-4z" fill="#352848" stroke="#352848" stroke-width="1.51"/><path d="M-334-24l-65-411 83 992z" fill="#573e5d" stroke="#573e5d" stroke-width="1.51"/><path d="M105-324l-504-111L3-252z" fill="#3c2c45" stroke="#3c2c45" stroke-width="1.51"/><path d="M383-390l-782-45 504 111z" fill="#3e2d48" stroke="#3e2d48" stroke-width="1.51"/><path d="M1492-411l-1891-24 782 45z" fill="#563d5b" stroke="#563d5b" stroke-width="1.51"/></svg>